<?xml version="1.0" encoding="utf-8"?>
<!-- Generator: Adobe Illustrator 16.0.4, SVG Export Plug-In . SVG Version: 6.00 Build 0)  -->
<!DOCTYPE svg PUBLIC "-//W3C//DTD SVG 1.1//EN" "http://www.w3.org/Graphics/SVG/1.1/DTD/svg11.dtd">
<svg version="1.1" id="Layer_1" xmlns="http://www.w3.org/2000/svg" xmlns:xlink="http://www.w3.org/1999/xlink" x="0px" y="0px"
	 width="354.601px" height="103.703px" viewBox="0 0 354.601 103.703" enable-background="new 0 0 354.601 103.703"
	 xml:space="preserve">
<g>
	<path fill="#60646A" d="M110.919,82.905c-0.944,0.719-2.133,1.072-3.566,1.072c-1.009,0-1.885-0.16-2.624-0.486
		c-0.743-0.324-1.365-0.779-1.87-1.367c-0.503-0.586-0.883-1.287-1.135-2.102c-0.253-0.812-0.395-1.699-0.428-2.662
		c0-0.963,0.146-1.842,0.438-2.639c0.295-0.799,0.706-1.49,1.234-2.076c0.531-0.588,1.158-1.041,1.883-1.369
		c0.725-0.323,1.516-0.488,2.381-0.488c1.123,0,2.1,0.199,2.8,0.697c0.744,0.5,1.3,1.1,1.8,1.8c0.447,0.7,0.8,1.5,0.9,2.346
		c0.171,0.8,0.2,1.601,0.2,2.418h-9.451c-0.017,0.601,0,1.101,0.2,1.601c0.147,0.5,0.4,0.899,0.7,1.317c0.327,0.4,0.7,0.7,1.2,0.916
		c0.506,0.2,1.1,0.3,1.8,0.3c0.879,0,1.602-0.201,2.164-0.61c0.561-0.404,0.931-1.023,1.109-1.854h2.053
		C112.475,81.142,111.82,82.142,110.919,82.905L110.919,82.905z M110.419,74.796c-0.188-0.438-0.438-0.816-0.758-1.135
		c-0.316-0.318-0.691-0.569-1.123-0.76c-0.433-0.188-0.908-0.279-1.431-0.279c-0.537,0-1.021,0.092-1.45,0.279
		c-0.435,0.188-0.805,0.442-1.113,0.771c-0.31,0.326-0.553,0.703-0.732,1.1c-0.182,0.438-0.286,0.896-0.318,1.381h7.254
		C110.716,75.742,110.621,75.242,110.419,74.796L110.419,74.796z"/>
	<path fill="#60646A" d="M130.411,67.282v16.43h-2.074v-16.43H130.411z"/>
	<path fill="#60646A" d="M142.575,82.905c-0.945,0.719-2.133,1.072-3.564,1.072c-1.012,0-1.887-0.16-2.627-0.486
		c-0.74-0.324-1.364-0.779-1.869-1.367c-0.504-0.586-0.883-1.287-1.135-2.102c-0.254-0.813-0.395-1.699-0.426-2.662
		c0-0.963,0.146-1.842,0.438-2.639c0.294-0.799,0.703-1.49,1.234-2.076c0.527-0.588,1.155-1.041,1.879-1.369
		c0.726-0.323,1.52-0.488,2.383-0.488c1.125,0,2.1,0.199,2.8,0.697c0.743,0.5,1.3,1.1,1.8,1.8c0.449,0.7,0.8,1.5,0.9,2.346
		c0.173,0.8,0.2,1.601,0.2,2.418h-9.453c-0.016,0.601,0.1,1.101,0.2,1.601c0.146,0.5,0.4,0.899,0.7,1.317
		c0.326,0.4,0.7,0.7,1.2,0.916c0.507,0.2,1.1,0.3,1.8,0.3c0.877,0,1.599-0.201,2.16-0.61c0.562-0.404,0.934-1.023,1.11-1.854h2.053
		c-0.227,1.424-0.837,2.424-1.737,3.188H142.575z M142.074,74.796c-0.188-0.438-0.438-0.816-0.756-1.135
		c-0.317-0.318-0.692-0.569-1.125-0.76c-0.433-0.188-0.905-0.279-1.428-0.279c-0.539,0-1.023,0.092-1.453,0.279
		c-0.433,0.188-0.804,0.442-1.112,0.771c-0.31,0.326-0.554,0.703-0.732,1.1c-0.18,0.438-0.284,0.896-0.318,1.381h7.255
		c-0.033-0.411-0.184-0.911-0.284-1.357H142.074z"/>
	<path fill="#60646A" d="M148.63,71.083v2.664h0.048c0.505-1.025,1.125-1.784,1.856-2.271c0.733-0.488,1.662-0.717,2.784-0.686
		v2.199c-0.83,0-1.538,0.111-2.123,0.341c-0.587,0.229-1.062,0.562-1.417,1.003c-0.359,0.438-0.622,0.973-0.783,1.6
		c-0.162,0.629-0.242,1.351-0.242,2.161v5.618h-2.078V71.083H148.63L148.63,71.083z"/>
	<path fill="#60646A" d="M159.559,71.083v1.834h-2.516v7.84c0,0.2,0,0.4,0.1,0.586c0.04,0.1,0.1,0.301,0.2,0.301
		c0.113,0.1,0.3,0.1,0.5,0.157c0.204,0,0.5,0,0.8,0.035h0.954v1.832h-1.588c-0.539,0-0.998-0.037-1.382-0.108
		c-0.381-0.072-0.689-0.209-0.926-0.402c-0.235-0.195-0.414-0.475-0.526-0.83c-0.114-0.357-0.171-0.83-0.171-1.417v-8.034v-1.834
		v-3.784h2.078v3.784L159.559,71.083L159.559,71.083z"/>
	<path fill="#60646A" d="M163.732,71.083v2.664h0.05c0.505-1.025,1.123-1.784,1.855-2.271c0.733-0.488,1.661-0.717,2.786-0.686
		v2.199c-0.832,0-1.539,0.111-2.125,0.341c-0.588,0.229-1.06,0.562-1.418,1.003c-0.357,0.438-0.618,0.973-0.78,1.6
		c-0.164,0.629-0.244,1.351-0.244,2.161v5.618h-2.079V71.083H163.732L163.732,71.083z"/>
	<path fill="#60646A" d="M190.649,73.281c-0.521-0.44-1.221-0.659-2.101-0.659c-0.748,0-1.377,0.139-1.879,0.4
		c-0.508,0.275-0.91,0.645-1.213,1.1c-0.301,0.457-0.518,0.98-0.646,1.577c-0.131,0.594-0.196,1.209-0.196,1.8
		c0,0.6,0.101,1.2,0.2,1.71c0.139,0.601,0.4,1,0.6,1.479c0.291,0.399,0.7,0.799,1.101,1c0.474,0.299,1,0.399,1.7,0.39
		c1.024,0,1.83-0.269,2.406-0.808c0.575-0.537,0.934-1.293,1.062-2.271h2.125c-0.229,1.562-0.811,2.771-1.746,3.616
		c-0.938,0.844-2.211,1.268-3.824,1.268c-0.96,0-1.812-0.152-2.553-0.463c-0.741-0.311-1.355-0.748-1.854-1.316
		c-0.496-0.57-0.871-1.252-1.125-2.041c-0.252-0.789-0.379-1.654-0.379-2.603c0-0.94,0.123-1.828,0.366-2.649
		c0.244-0.82,0.615-1.537,1.112-2.147c0.497-0.611,1.117-1.091,1.865-1.44c0.75-0.352,1.621-0.525,2.615-0.525
		c0.717,0,1.4,0.1,2,0.3c0.629,0.2,1.2,0.399,1.7,0.793c0.479,0.399,0.9,0.8,1.2,1.354c0.311,0.5,0.5,1.199,0.6,1.94h-2.147
		c-0.127-0.744-0.519-1.344-1.019-1.805H190.649z"/>
	<path fill="#60646A" d="M198.416,67.282v9.322l5.77-5.521h2.783l-5.01,4.593l5.375,8.036h-2.64l-4.323-6.596l-1.955,1.807v4.789
		h-2.074v-16.43H198.416L198.416,67.282z"/>
	<path fill="#979997" d="M218.91,71.083v1.834h-3.238v7.84c0,0.2,0,0.4,0.101,0.586c0.039,0.1,0.101,0.301,0.2,0.301
		c0.111,0.1,0.3,0.1,0.5,0.157c0.201,0,0.5,0,0.8,0.035h0.952v1.832h-1.586c-0.539,0-0.998-0.037-1.383-0.108
		c-0.381-0.072-0.689-0.209-0.928-0.402c-0.233-0.195-0.41-0.475-0.524-0.83c-0.113-0.357-0.171-0.83-0.171-1.417v-8.034v-1.834
		v-3.784h2.076v3.784L218.91,71.083L218.91,71.083z"/>
	<path fill="#979997" d="M229.42,82.905c-0.944,0.719-2.135,1.072-3.563,1.072c-1.011,0-1.887-0.16-2.629-0.486
		c-0.741-0.324-1.364-0.779-1.867-1.367c-0.506-0.586-0.883-1.287-1.136-2.102c-0.252-0.812-0.396-1.699-0.428-2.662
		c0-0.963,0.146-1.842,0.438-2.639c0.293-0.799,0.703-1.49,1.234-2.076c0.524-0.588,1.151-1.041,1.881-1.369
		c0.724-0.323,1.519-0.488,2.379-0.488c1.125,0,2.101,0.199,2.8,0.697c0.741,0.5,1.301,1.1,1.801,1.8
		c0.445,0.7,0.799,1.5,0.899,2.346c0.172,0.8,0.2,1.601,0.2,2.418h-9.453c-0.018,0.601,0.1,1.101,0.199,1.601
		c0.146,0.5,0.4,0.899,0.701,1.317c0.324,0.4,0.699,0.7,1.199,0.916c0.504,0.2,1.1,0.3,1.801,0.3c0.879,0,1.601-0.201,2.16-0.61
		c0.562-0.404,0.934-1.023,1.109-1.854h2.057C230.976,81.142,230.32,82.142,229.42,82.905z M228.92,74.796
		c-0.188-0.438-0.439-0.816-0.758-1.135s-0.69-0.569-1.125-0.76c-0.432-0.188-0.906-0.279-1.428-0.279
		c-0.54,0-1.021,0.092-1.456,0.279c-0.432,0.188-0.802,0.442-1.108,0.771c-0.312,0.327-0.555,0.703-0.733,1.1
		c-0.179,0.438-0.284,0.896-0.315,1.381h7.256C229.217,75.742,229.121,75.242,228.92,74.796L228.92,74.796z"/>
	<path fill="#979997" d="M241.145,73.281c-0.521-0.44-1.221-0.659-2.1-0.659c-0.75,0-1.381,0.139-1.885,0.4
		c-0.506,0.275-0.906,0.645-1.209,1.1c-0.302,0.457-0.519,0.98-0.646,1.577c-0.132,0.594-0.196,1.209-0.196,1.8
		c0,0.6,0.1,1.2,0.2,1.71c0.137,0.601,0.399,1,0.601,1.479c0.291,0.399,0.699,0.799,1.1,1c0.472,0.299,1,0.399,1.699,0.39
		c1.023,0,1.83-0.269,2.403-0.808c0.579-0.537,0.937-1.293,1.063-2.271h2.127c-0.229,1.562-0.812,2.771-1.748,3.616
		c-0.938,0.844-2.209,1.268-3.822,1.268c-0.96,0-1.812-0.152-2.553-0.463c-0.741-0.311-1.36-0.748-1.857-1.316
		c-0.496-0.57-0.867-1.252-1.121-2.041s-0.38-1.654-0.38-2.603c0-0.94,0.122-1.828,0.366-2.649c0.244-0.82,0.615-1.537,1.111-2.147
		c0.498-0.611,1.119-1.091,1.867-1.44c0.75-0.352,1.619-0.525,2.612-0.525c0.718,0,1.4,0.1,2,0.257c0.628,0.2,1.2,0.399,1.7,0.793
		c0.479,0.399,0.9,0.8,1.2,1.399c0.31,0.5,0.5,1.201,0.6,1.941h-2.147c-0.123-0.747-0.51-1.347-1.01-1.808H241.145z"/>
	<path fill="#979997" d="M248.789,67.282v5.658h0.051c0.162-0.393,0.393-0.721,0.686-0.988c0.292-0.271,0.623-0.489,0.989-0.659
		s0.75-0.297,1.146-0.379c0.4-0.08,0.788-0.122,1.163-0.122c0.829,0,1.5,0.1,2.101,0.341c0.554,0.2,1,0.5,1.3,1
		c0.343,0.4,0.601,0.9,0.7,1.455c0.14,0.601,0.199,1.2,0.199,1.866v8.306h-2.076v-8.55c0-0.779-0.229-1.4-0.685-1.855
		c-0.457-0.457-1.083-0.684-1.883-0.684c-0.634,0-1.185,0.1-1.646,0.294c-0.467,0.193-0.854,0.472-1.16,0.8
		c-0.312,0.355-0.541,0.775-0.697,1.258c-0.153,0.481-0.229,1.004-0.229,1.574v7.133h-2.076V67.3L248.789,67.282L248.789,67.282z"/>
	<path fill="#979997" d="M262.246,71.083v2.003h0.053c0.861-1.528,2.229-2.296,4.103-2.296c0.832,0,1.5,0.1,2.101,0.3
		c0.552,0.2,1,0.5,1.299,0.954c0.345,0.4,0.601,0.9,0.701,1.455c0.138,0.6,0.199,1.2,0.199,1.866v8.306h-2.074v-8.55
		c0-0.779-0.229-1.399-0.687-1.854c-0.454-0.457-1.082-0.685-1.88-0.685c-0.635,0-1.184,0.099-1.648,0.3
		c-0.464,0.193-0.85,0.473-1.156,0.83c-0.312,0.355-0.541,0.775-0.697,1.257c-0.153,0.482-0.23,1.005-0.23,1.575v7.133h-2.076
		V71.083H262.246z"/>
	<path fill="#979997" d="M273.582,74.808c0.262-0.804,0.65-1.505,1.174-2.101c0.521-0.592,1.162-1.062,1.931-1.401
		c0.765-0.342,1.644-0.515,2.638-0.515c1.01,0,1.899,0.2,2.699,0.515c0.801,0.313,1.395,0.799,1.9,1.399
		c0.52,0.601,0.9,1.3,1.199,2.101c0.26,0.801,0.4,1.7,0.4,2.604c0,0.929-0.133,1.792-0.393,2.6c-0.262,0.8-0.652,1.493-1.172,2.091
		c-0.522,0.594-1.162,1.057-1.918,1.392c-0.758,0.333-1.643,0.499-2.65,0.5c-0.994,0-1.872-0.166-2.637-0.499
		c-0.77-0.335-1.41-0.799-1.932-1.393c-0.521-0.597-0.912-1.291-1.173-2.09c-0.261-0.798-0.392-1.66-0.392-2.59
		c-0.067-0.979,0.062-1.779,0.363-2.613H273.582z M275.694,79.442c0.202,0.6,0.5,1.1,0.8,1.485c0.358,0.4,0.801,0.7,1.301,0.916
		c0.479,0.2,1,0.3,1.5,0.3c0.539,0,1.047-0.104,1.526-0.317c0.479-0.211,0.897-0.517,1.259-0.916
		c0.356-0.396,0.64-0.896,0.844-1.486c0.201-0.596,0.308-1.274,0.308-2.041s-0.104-1.442-0.308-2.039
		c-0.204-0.594-0.484-1.097-0.844-1.501c-0.358-0.406-0.778-0.716-1.259-0.931c-0.479-0.21-0.987-0.315-1.526-0.315
		c-0.537,0-1.047,0.104-1.522,0.299c-0.481,0.215-0.901,0.522-1.262,0.932c-0.355,0.404-0.64,0.906-0.843,1.501
		c-0.203,0.597-0.306,1.272-0.306,2s0.128,1.514,0.358,2.122L275.694,79.442z"/>
	<path fill="#979997" d="M290.092,67.282v16.43h-2.076v-16.43H290.092z"/>
	<path fill="#979997" d="M293.023,74.808c0.26-0.804,0.65-1.505,1.173-2.101c0.521-0.592,1.163-1.062,1.931-1.401
		c0.766-0.342,1.645-0.515,2.639-0.515c1.011,0,1.9,0.2,2.6,0.515c0.762,0.299,1.4,0.799,1.9,1.399c0.521,0.601,0.9,1.3,1.199,2.101
		c0.26,0.801,0.4,1.7,0.4,2.604c0,0.929-0.133,1.792-0.392,2.6c-0.263,0.8-0.652,1.493-1.175,2.091
		c-0.521,0.594-1.156,1.057-1.918,1.392c-0.756,0.333-1.639,0.499-2.647,0.5c-0.993,0-1.873-0.166-2.639-0.499
		c-0.767-0.335-1.407-0.799-1.931-1.393c-0.521-0.597-0.914-1.291-1.172-2.09c-0.262-0.798-0.393-1.66-0.393-2.59
		c0.031-0.979,0.121-1.779,0.421-2.613H293.023z M295.136,79.442c0.204,0.6,0.5,1.1,0.8,1.485c0.355,0.4,0.8,0.7,1.3,0.916
		c0.481,0.2,1,0.3,1.5,0.3c0.539,0,1.046-0.104,1.524-0.317c0.479-0.211,0.898-0.517,1.261-0.916
		c0.354-0.396,0.64-0.896,0.843-1.486c0.204-0.595,0.307-1.274,0.307-2.041s-0.103-1.442-0.307-2.039
		c-0.204-0.594-0.486-1.097-0.843-1.501c-0.358-0.406-0.778-0.716-1.261-0.931c-0.479-0.21-0.985-0.315-1.524-0.315
		c-0.537,0-1.045,0.104-1.526,0.299c-0.479,0.215-0.897,0.522-1.258,0.932c-0.357,0.404-0.639,0.906-0.843,1.501
		c-0.204,0.597-0.31,1.272-0.31,2c0.029,0.813,0.121,1.514,0.322,2.122L295.136,79.442z"/>
	<path fill="#979997" d="M316.813,87.278c-0.944,1.024-2.428,1.539-4.446,1.539c-0.586,0-1.185-0.066-1.795-0.196
		c-0.607-0.129-1.164-0.341-1.662-0.634c-0.494-0.297-0.904-0.678-1.229-1.15c-0.326-0.472-0.506-1.049-0.537-1.732h2.074
		c0.017,0.4,0.1,0.701,0.4,0.953c0.223,0.301,0.5,0.5,0.799,0.633c0.314,0.201,0.701,0.301,1,0.4c0.375,0.1,0.701,0.1,1.101,0.109
		c0.687,0,1.265-0.118,1.733-0.354c0.472-0.236,0.86-0.562,1.172-0.979c0.309-0.415,0.533-0.916,0.673-1.501
		c0.14-0.586,0.206-1.229,0.206-1.933v-0.832h-0.049c-0.357,0.781-0.898,1.356-1.623,1.7c-0.728,0.365-1.495,0.55-2.31,0.55
		c-0.944,0-1.768-0.17-2.469-0.514c-0.699-0.343-1.285-0.802-1.757-1.382c-0.475-0.574-0.827-1.252-1.062-2.024
		c-0.236-0.773-0.354-1.591-0.354-2.455c0-0.748,0.097-1.52,0.292-2.312c0.196-0.785,0.521-1.504,0.978-2.146
		c0.455-0.645,1.061-1.172,1.809-1.588c0.75-0.414,1.669-0.623,2.762-0.623c0.796,0,1.5,0.199,2.2,0.525c0.67,0.4,1.2,0.9,1.6,1.575
		h0.022v-1.828h1.955v11.555c-0.067,2.105-0.576,3.605-1.477,4.642H316.813z M314.164,81.601c0.479-0.285,0.866-0.662,1.16-1.125
		c0.293-0.466,0.508-0.985,0.647-1.576c0.137-0.584,0.206-1.172,0.206-1.758c0-0.554-0.065-1.1-0.195-1.639
		c-0.129-0.535-0.339-1.02-0.624-1.451c-0.284-0.432-0.653-0.779-1.11-1.04c-0.455-0.259-1.01-0.389-1.658-0.389
		c-0.67,0-1.237,0.126-1.711,0.378c-0.476,0.253-0.857,0.59-1.159,1.014c-0.304,0.424-0.521,0.914-0.659,1.5
		c-0.141,0.558-0.208,1.137-0.208,1.734c0,0.6,0.101,1.1,0.2,1.709c0.113,0.6,0.3,1.1,0.6,1.6c0.276,0.5,0.6,0.801,1.1,1.125
		c0.455,0.299,1,0.399,1.701,0.428c0.646-0.068,1.268-0.269,1.668-0.51H314.164z"/>
	<path fill="#979997" d="M321.479,68.813v-2.543h2.074v2.543H321.479z M323.553,71.083v12.629h-2.074V71.083H323.553z"/>
	<path fill="#979997" d="M335.717,82.905c-0.943,0.719-2.133,1.072-3.565,1.072c-1.009,0-1.885-0.16-2.626-0.486
		c-0.74-0.324-1.365-0.779-1.867-1.367c-0.507-0.586-0.886-1.287-1.138-2.102c-0.253-0.812-0.396-1.699-0.426-2.662
		c0-0.963,0.146-1.842,0.438-2.639c0.291-0.799,0.7-1.49,1.23-2.076c0.527-0.588,1.156-1.041,1.881-1.369
		c0.725-0.323,1.52-0.488,2.382-0.488c1.124,0,2.101,0.199,2.8,0.697c0.741,0.5,1.301,1.1,1.801,1.8
		c0.445,0.7,0.799,1.5,0.899,2.346c0.175,0.8,0.2,1.601,0.2,2.418h-9.449c-0.02,0.601,0,1.101,0.2,1.601
		c0.146,0.5,0.399,0.899,0.7,1.317c0.324,0.4,0.699,0.7,1.199,0.916c0.506,0.2,1.101,0.3,1.801,0.3c0.881,0,1.601-0.201,2.16-0.61
		c0.562-0.404,0.934-1.023,1.109-1.854h2.057c-0.231,1.424-0.883,2.424-1.783,3.188H335.717z M335.217,74.796
		c-0.188-0.438-0.439-0.816-0.76-1.135c-0.315-0.318-0.69-0.569-1.123-0.76c-0.434-0.188-0.905-0.279-1.43-0.279
		c-0.537,0-1.021,0.092-1.453,0.279c-0.432,0.188-0.803,0.442-1.109,0.771c-0.312,0.327-0.557,0.703-0.732,1.1
		c-0.18,0.438-0.283,0.896-0.314,1.381h7.254c-0.034-0.411-0.129-0.911-0.328-1.357H335.217z"/>
	<path fill="#979997" d="M341.48,80.89c0.195,0.301,0.5,0.601,0.8,0.76c0.319,0.199,0.7,0.3,1.101,0.399
		c0.399,0.101,0.8,0.101,1.199,0.123c0.324,0,0.668-0.022,1.025-0.073c0.355-0.05,0.688-0.138,0.986-0.269
		c0.304-0.131,0.551-0.322,0.744-0.574c0.197-0.253,0.295-0.573,0.295-0.965c0-0.537-0.205-0.942-0.609-1.222
		c-0.407-0.275-0.916-0.502-1.525-0.672c-0.61-0.172-1.273-0.326-1.992-0.465c-0.717-0.141-1.379-0.336-1.987-0.588
		c-0.608-0.254-1.119-0.604-1.524-1.062c-0.408-0.455-0.613-1.091-0.613-1.903c0-0.636,0.146-1.181,0.431-1.638
		c0.284-0.455,0.647-0.826,1.103-1.112c0.445-0.281,0.95-0.495,1.512-0.634c0.563-0.14,1.119-0.208,1.674-0.208
		c0.716,0,1.4,0.1,2,0.184c0.601,0.101,1.1,0.301,1.6,0.637c0.467,0.301,0.801,0.701,1.1,1.201c0.275,0.5,0.4,1.1,0.5,1.916h-2.075
		c-0.034-0.406-0.142-0.744-0.318-1.016c-0.178-0.27-0.405-0.482-0.685-0.646c-0.275-0.16-0.581-0.279-0.916-0.354
		c-0.333-0.072-0.67-0.107-1.016-0.107c-0.31,0-0.623,0.023-0.938,0.101c-0.315,0.049-0.606,0.136-0.865,0.255
		c-0.262,0.125-0.472,0.286-0.637,0.489c-0.162,0.204-0.244,0.47-0.244,0.8c0,0.4,0.101,0.7,0.399,0.895
		c0.254,0.2,0.601,0.4,1,0.588c0.395,0.201,0.801,0.301,1.301,0.4c0.488,0.1,1,0.2,1.5,0.329c0.521,0.101,1,0.3,1.5,0.416
		c0.496,0.2,0.9,0.399,1.3,0.601c0.382,0.299,0.7,0.6,0.899,1.016c0.235,0.4,0.4,0.9,0.4,1.514c0,0.768-0.158,1.4-0.475,1.9
		c-0.317,0.505-0.732,0.912-1.246,1.221c-0.514,0.312-1.094,0.525-1.733,0.648c-0.645,0.121-1.28,0.182-1.919,0.199
		c-0.701,0-1.365-0.07-2.002-0.219c-0.637-0.146-1.195-0.386-1.686-0.721c-0.488-0.334-0.881-0.771-1.178-1.32
		c-0.289-0.543-0.453-1.207-0.483-1.988h2.075c-0.074,0.416,0.064,0.816,0.265,1.164H341.48z"/>
</g>
<path fill="#60646A" d="M124.991,80.757v-6.498c0-0.73-0.139-1.324-0.417-1.781c-0.276-0.457-0.643-0.812-1.098-1.062
	c-0.457-0.252-0.966-0.419-1.526-0.501c-0.562-0.08-1.129-0.122-1.699-0.122c-0.699,0-1.367,0.074-2.002,0.2
	c-0.635,0.126-1.197,0.389-1.686,0.719c-0.488,0.336-0.878,0.771-1.173,1.308c-0.292,0.537-0.455,1.196-0.489,1.979h2.077
	c0.048-0.928,0.366-1.559,0.954-1.891c0.585-0.334,1.318-0.502,2.195-0.502c0.328,0,0.7,0,1,0.101c0.336,0,0.6,0.101,0.9,0.293
	c0.271,0.101,0.5,0.399,0.7,0.636c0.17,0.301,0.3,0.6,0.3,1.1c0,0.394-0.113,0.688-0.341,0.894c-0.229,0.205-0.537,0.356-0.93,0.464
	c-0.39,0.105-0.842,0.188-1.355,0.2c-0.512,0.058-1.055,0.144-1.624,0.257c-0.537,0.098-1.063,0.221-1.575,0.367
	c-0.514,0.146-0.969,0.359-1.369,0.6c-0.397,0.286-0.718,0.656-0.965,1.111c-0.242,0.455-0.365,1.045-0.365,1.761
	c0,0.601,0.1,1.2,0.3,1.601c0.221,0.399,0.5,0.8,0.9,1.097c0.383,0.3,0.8,0.5,1.3,0.612c0.505,0.1,1,0.199,1.6,0.199
	c0.877,0,1.697-0.146,2.453-0.449c0.758-0.303,1.42-0.793,1.992-1.479c0,0.7,0.2,1.2,0.5,1.5c0.32,0.301,0.7,0.4,1.3,0.449
	c0.071,0,0.137-0.004,0.207-0.008L124.991,80.757z M122.915,79.342c0,0.292-0.074,0.605-0.222,0.941
	c-0.146,0.332-0.375,0.642-0.683,0.926c-0.312,0.285-0.709,0.522-1.195,0.7c-0.491,0.188-1.076,0.279-1.76,0.279
	c-0.311,0-0.615-0.03-0.917-0.1c-0.302-0.062-0.562-0.168-0.781-0.314c-0.219-0.146-0.399-0.34-0.537-0.575
	c-0.139-0.234-0.209-0.522-0.209-0.865c0-0.521,0.118-0.931,0.354-1.231c0.235-0.302,0.541-0.533,0.918-0.697
	c0.373-0.162,0.795-0.279,1.27-0.354c0.473-0.071,0.939-0.139,1.402-0.194c0.466-0.058,0.908-0.129,1.333-0.219
	c0.423-0.094,0.764-0.232,1.024-0.431l0.003,2.108l0,0V79.342z"/>
<path fill="#60646A" d="M180.234,80.757v-6.498c0-0.73-0.138-1.324-0.413-1.781c-0.276-0.457-0.646-0.812-1.102-1.062
	c-0.457-0.251-0.964-0.419-1.527-0.501c-0.56-0.08-1.126-0.122-1.696-0.122c-0.699,0-1.367,0.074-2.002,0.2
	c-0.637,0.146-1.197,0.389-1.686,0.719c-0.488,0.336-0.88,0.771-1.174,1.308c-0.293,0.537-0.454,1.196-0.488,1.979h2.077
	c0.048-0.928,0.366-1.559,0.952-1.891c0.588-0.334,1.32-0.502,2.199-0.502c0.326,0,0.7,0,1,0.101c0.333,0,0.6,0.101,0.9,0.293
	c0.267,0.101,0.5,0.399,0.7,0.636c0.171,0.301,0.3,0.6,0.3,1.1c0,0.394-0.112,0.688-0.341,0.894s-0.537,0.356-0.93,0.464
	c-0.393,0.106-0.842,0.188-1.354,0.2c-0.514,0.058-1.055,0.144-1.626,0.257c-0.539,0.098-1.062,0.221-1.575,0.367
	c-0.513,0.146-0.969,0.359-1.369,0.6c-0.398,0.286-0.72,0.656-0.965,1.111c-0.244,0.455-0.365,1.045-0.365,1.761
	c0,0.601,0.1,1.2,0.3,1.601c0.221,0.399,0.5,0.8,0.9,1.097c0.381,0.3,0.8,0.5,1.3,0.612c0.505,0.1,1,0.199,1.6,0.199
	c0.877,0,1.697-0.146,2.453-0.449c0.758-0.303,1.42-0.793,1.988-1.479c0,0.7,0.201,1.2,0.5,1.5c0.313,0.301,0.701,0.4,1.301,0.449
	c0.072,0,0.137-0.004,0.203-0.008L180.234,80.757z M178.16,79.342c0,0.292-0.074,0.605-0.222,0.941
	c-0.147,0.332-0.375,0.642-0.685,0.926c-0.309,0.285-0.709,0.522-1.196,0.7c-0.489,0.188-1.074,0.279-1.759,0.279
	c-0.31,0-0.614-0.03-0.916-0.1c-0.301-0.062-0.562-0.168-0.781-0.314c-0.219-0.146-0.4-0.34-0.539-0.575
	c-0.137-0.234-0.207-0.522-0.207-0.865c0-0.521,0.118-0.931,0.354-1.231c0.238-0.302,0.543-0.533,0.916-0.697
	c0.375-0.162,0.799-0.279,1.271-0.354c0.472-0.071,0.94-0.139,1.403-0.194c0.467-0.058,0.908-0.129,1.333-0.219
	c0.421-0.094,0.765-0.232,1.025-0.431v2.125h0.002V79.342z"/>
<path fill="#60646A" d="M96.919,67.551v5.486h-0.047c-0.229-0.373-0.511-0.688-0.843-0.938c-0.335-0.254-0.688-0.455-1.063-0.611
	c-0.375-0.153-0.75-0.264-1.125-0.331c-0.372-0.062-0.725-0.097-1.049-0.097c-0.961,0-1.805,0.174-2.528,0.5
	c-0.726,0.353-1.327,0.824-1.806,1.418c-0.481,0.597-0.84,1.291-1.078,2.09c-0.235,0.798-0.354,1.646-0.354,2.5
	c0,0.899,0.1,1.699,0.4,2.539c0.244,0.801,0.6,1.5,1.1,2.103c0.479,0.601,1.1,1.101,1.8,1.399c0.725,0.4,1.6,0.5,2.6,0.537
	c0.881,0,1.686-0.153,2.421-0.463c0.729-0.312,1.428-1.024,1.771-1.727c0,0.7,0.2,1.2,0.5,1.479c0.318,0.301,0.7,0.5,1.3,0.451
	c0.071,0,0.137-0.009,0.207-0.013V67.551H96.919z M96.786,79.411c-0.139,0.57-0.361,1.081-0.669,1.525
	c-0.312,0.45-0.71,0.812-1.198,1.086c-0.488,0.278-1.082,0.42-1.783,0.4c-0.668,0-1.25-0.133-1.746-0.395
	c-0.497-0.258-0.903-0.605-1.221-1.049c-0.318-0.439-0.555-0.94-0.709-1.504c-0.156-0.562-0.233-1.135-0.233-1.722
	c0-0.618,0.065-1.223,0.196-1.81c0.129-0.586,0.343-1.104,0.636-1.562c0.292-0.455,0.684-0.822,1.173-1.102
	c0.488-0.275,1.083-0.415,1.784-0.415c0.716,0,1.3,0.1,1.8,0.399c0.506,0.301,0.9,0.601,1.2,1.062c0.316,0.4,0.6,0.9,0.7,1.523
	c0.146,0.601,0.2,1.2,0.2,1.801c0.079,0.591,0.005,1.19-0.095,1.76H96.786z"/>
<g>
	<path fill="#0257A1" d="M92.796,0L69.087,87.532c-1.2,4.483-3.828,8.62-7.79,11.665c-3.97,3.04-8.648,4.506-13.285,4.506H0
		L28.093,0H92.796L92.796,0z"/>
</g>
<path fill="#FFFFFF" d="M57.628,70.243h7.053l-1.817,6.782h-7.11L57.628,70.243z M56.755,62.369h-7.029l-8.951,32.396l1.467-0.012
	c1.525-0.154,3.037-0.779,4.332-1.8c1.26-0.993,2.221-2.302,2.759-3.731L56.755,62.369z M39.584,62.369l-6.691,24.318
	c-0.031,0.117-0.171,0.517-0.654,0.898c-0.359,0.285-0.701,0.389-0.882,0.389h-11.18l2.584-9.662
	c0.033-0.117,0.177-0.543,0.685-0.941c0.372-0.292,0.731-0.395,0.923-0.395h8.157l1.864-6.781H24.369
	c-1.788,0-3.606,0.658-5.122,1.854c-1.49,1.17-2.569,2.779-3.031,4.505L11.338,94.75h20.017c1.769,0,3.572-0.652,5.079-1.844
	c1.473-1.162,2.544-2.748,3.003-4.461l7.176-26.123h-7.029V62.369z"/>
<g>
	<path fill="#979997" d="M350.102,71.276v-0.355h1.822v0.355h-0.699v1.781h-0.426v-1.781H350.102z M352.896,70.921l0.548,1.5
		l0.55-1.529h0.606v2.137h-0.396v-1.723l-0.592,1.723h-0.341l-0.599-1.723v1.723h-0.394v-2.137h0.616V70.921z"/>
</g>
<g>
</g>
<g>
</g>
<g>
</g>
<g>
</g>
<g>
</g>
<g>
</g>
</svg>
